Coordinates
version=1
nRows=11
nColumns=36
inDegrees=yes

Units are S.I. units (second, meters, Newtons, ...)
If the header above contains a line with 'inDegrees', this indicates whether rotational values are in degrees (yes) or radians (no).

endheader
time	pelvis_tilt	pelvis_list	pelvis_rotation	pelvis_tx	pelvis_ty	pelvis_tz	hip_flexion_r	hip_adduction_r	hip_rotation_r	knee_angle_r	knee_angle_r_beta	ankle_angle_r	subtalar_angle_r	mtp_angle_r	hip_flexion_l	hip_adduction_l	hip_rotation_l	knee_angle_l	knee_angle_l_beta	ankle_angle_l	subtalar_angle_l	mtp_angle_l	lumbar_extension	lumbar_bending	lumbar_rotation	arm_flex_r	arm_add_r	arm_rot_r	elbow_flex_r	pro_sup_r	arm_flex_l	arm_add_l	arm_rot_l	elbow_flex_l	pro_sup_l
      2.21000000	    -29.62361826	     -2.98658694	     -0.58079105	     -0.25551019	      0.75384085	     -0.58003433	     68.56156582	      6.78102731	      4.17360455	     69.17148215	      1.20727011	     21.35765610	    -14.30075578	     -7.49999523	     74.53366128	     -7.63227176	      4.50440775	     66.58674281	      1.16215790	     22.46563734	     -5.85940622	     -7.49999523	    -25.81260574	      5.10891977	      1.78477819	    -16.46677207	    -23.51893475	    -17.87805502	     66.04565744	    102.08981209	    154.64892295	   -163.26965431	    157.97051850	     57.38586633	     89.02320125
      2.22000000	    -29.02171540	     -2.98427859	     -0.66100434	     -0.25389933	      0.75036733	     -0.58111749	     68.45827722	      6.80156203	      4.09016285	     70.40555244	      1.22880870	     22.02532532	    -14.22916715	     -7.49999688	     74.59376324	     -7.62607278	      4.51387009	     68.04222860	      1.18756092	     22.83316817	     -6.06723251	     -7.49999688	    -26.03549790	      5.18122789	      1.53049068	    -12.62636713	    -21.67001206	    -13.93200382	     63.64067266	    100.21868145	    159.45810083	   -163.94668379	    162.87178720	     55.78839886	     72.89570083
      2.23000000	    -28.21598489	     -2.96818481	     -0.82611933	     -0.25231132	      0.74707893	     -0.58177546	     68.10110428	      6.97571803	      4.11410859	     71.55952476	      1.24894932	     22.60919115	    -14.45317373	     -7.49999696	     74.38507417	     -7.74239492	      4.50115534	     69.45802835	      1.21227129	     23.26329546	     -6.33053953	     -7.49999696	    -26.52405679	      5.12331750	      1.16522431	     -8.18802789	    -19.91736769	     -9.84161714	     61.21766883	    100.30000693	    164.66854465	   -164.79168487	    166.25097118	     52.43466030	     72.46356978
      2.24000000	    -27.25420911	     -3.09697158	     -0.99818837	     -0.25072256	      0.74374614	     -0.58223202	     67.57890181	      7.24665918	      3.97293629	     72.72093159	      1.26921969	     23.28115546	    -14.58719849	     -7.49999707	     74.05127247	     -7.97257131	      4.63504128	     70.91914039	      1.23777250	     23.86655742	     -6.42551857	     -7.49999707	    -27.13896647	      5.21430774	      0.72098690	     -3.37640821	    -18.52995939	     -4.84117477	     59.32728579	    100.34159018	    169.88532375	   -165.34487128	    169.92626725	     49.63772398	     71.88235980
      2.25000000	    -26.33125131	     -3.16625365	     -1.14760838	     -0.24932734	      0.74002816	     -0.58304689	     67.18522544	      7.44379247	      3.88260556	     74.01737596	      1.29184691	     23.91070972	    -14.75661576	     -7.49999715	     73.68660369	     -8.03983897	      4.79026437	     72.29291943	      1.26174947	     24.63053277	     -6.71826714	     -7.49999715	    -27.62601603	      5.36229894	      0.21064588	      1.55844599	    -17.17706269	     -0.03557157	     58.33103040	    100.36489831	    175.13845146	   -165.99198337	    172.85914254	     47.67938361	     71.36486339
      2.26000000	    -25.48768211	     -2.87296967	     -1.37505440	     -0.24818464	      0.73598922	     -0.58434131	     67.00328135	      7.37774899	      4.09246950	     75.48114534	      1.31739451	     24.62229472	    -14.62961675	     -7.49999739	     73.20644279	     -7.84511767	      4.60486318	     73.52227928	      1.28320585	     25.46574732	     -7.44130092	     -7.49999739	    -28.04497750	      5.14741750	     -1.59923555	      7.74586472	    -15.76061165	      6.23869723	     57.35765544	     99.89023547	    178.78599328	   -166.51522469	    173.36988480	     48.79755568	     70.49477554
      2.27000000	    -24.78802443	     -2.43002317	     -1.73174889	     -0.24694199	      0.73150631	     -0.58527758	     67.03780170	      7.36143003	      4.47361238	     77.05165075	      1.34480500	     25.14085436	    -14.61719155	     -7.49999746	     72.81412059	     -7.72769118	      4.15993302	     74.73421400	      1.30435810	     26.38186475	     -8.17663008	     -7.49999746	    -28.18897103	      4.72291855	     -5.30028167	     15.30903711	    -13.27471839	     14.10519443	     56.07872158	    100.05754560	    179.63383463	   -166.37185289	    171.45118161	     54.01002454	     70.72270859
      2.28000000	    -24.05004279	     -2.40309532	     -1.91353110	     -0.24554539	      0.72736468	     -0.58637326	     66.84583065	      7.42226929	      4.42237912	     78.35237753	      1.36750696	     25.87221704	    -14.58863260	     -7.49999755	     72.53299861	     -7.65949004	      4.16355437	     76.02773547	      1.32693431	     27.14792242	     -8.78115597	     -7.49999755	    -28.29899406	      4.90640623	     -9.46049541	     23.11090562	    -10.00025375	     22.11043860	     54.94753655	    100.08184847	    179.78470103	   -165.63509351	    168.64996199	     60.86648842	     70.98389111
      2.29000000	    -23.17497763	     -2.61916524	     -1.85270706	     -0.24404947	      0.72385429	     -0.58792275	     66.30255707	      7.49063577	      4.19030644	     79.40903365	      1.38594909	     26.74895791	    -14.74655328	     -7.49999822	     72.18168232	     -7.48173378	      4.43593989	     77.27508778	      1.34870471	     27.73395609	     -9.39473948	     -7.49999822	    -28.49075223	      5.59280714	    -13.66967891	     30.55191932	     -6.06496819	     29.40012822	     54.68152175	     96.38530243	    179.84697124	   -163.92754616	    166.33602782	     68.93318100	     67.26115406
      2.30000000	    -22.41132996	     -2.71971056	     -1.70470575	     -0.24279635	      0.72063700	     -0.58993492	     65.77233760	      7.45672615	      4.10297449	     80.28299540	      1.40120260	     27.47415798	    -15.37117988	     -7.49999827	     71.85849077	     -7.04020829	      4.72049957	     78.36044495	      1.36764777	     28.25305316	    -10.03660265	     -7.49999827	    -28.51111325	      6.33760902	    -17.88329148	     37.66469047	     -1.59348449	     35.14068166	     54.65656097	     96.68087774	    179.87933702	   -161.48710839	    163.65049404	     77.04464210	     68.00863675
      2.31000000	    -21.86267326	     -2.73625721	     -1.63499384	     -0.24169741	      0.71780231	     -0.59166846	     65.37465271	      7.47672445	      4.14399638	     80.96148001	      1.41304439	     28.17775078	    -15.91425808	     -7.49999832	     71.66056239	     -6.65445721	      4.89839997	     79.27321366	      1.38357859	     28.57053621	    -10.62433078	     -7.49999832	    -28.20042653	      7.02371871	    -21.91875347	     44.49323497	      3.30010995	     39.68452570	     54.75874633	     96.68720520	    179.89689639	   -158.06854874	    160.73934543	     85.25763054	     68.63443548
